<?xml version="1.0" encoding="UTF-8"?>
<svg xmlns="http://www.w3.org/2000/svg" viewBox="0 0 1280 880" width="1280" height="880" preserveAspectRatio="xMidYMid meet">
  <rect x="0" y="0" width="1280" height="880" fill="#FAFAF7"/>

  <g font-family="Inter, 'PingFang SC', system-ui, sans-serif" font-size="13" font-weight="600" fill="#9CA3AF" letter-spacing="4" text-anchor="middle">
    <text x="640" y="22">— 远见 —</text>
    <text x="640" y="868">— 宏观经济 —</text>
    <text x="20" y="440" transform="rotate(-90 20 440)">— 竞争分析 —</text>
    <text x="1260" y="440" transform="rotate(90 1260 440)">— 市场分析 —</text>
  </g>

  <g fill="none" stroke="#1F2937" stroke-width="1.5" vector-effect="non-scaling-stroke">
    <rect x="40"  y="40"  width="1200" height="200"/>
    <rect x="40"  y="260" width="380"  height="360"/>
    <rect x="860" y="260" width="380"  height="360"/>
    <rect x="40"  y="640" width="1200" height="200"/>
  </g>

  <g font-family="Inter, 'PingFang SC', system-ui, sans-serif" font-size="14" font-style="italic" fill="#9CA3AF">
    <text x="70"  y="108">技术趋势 · 行业管理趋势 · 社会和文化趋势 · 社会经济趋势</text>
    <text x="60"  y="320">供应商和价值链上的其他厂商</text>
    <text x="60"  y="340">利益相关者 · (现有)竞争对手</text>
    <text x="60"  y="360">新进入者(挑战者) · 替代产品和服务</text>
    <text x="880" y="320">市场分类 · 需求和诉求</text>
    <text x="880" y="340">市场问题 · 切换成本</text>
    <text x="880" y="360">收入吸引力</text>
    <text x="70"  y="713">全球市场情况 · 资本市场 · 大宗商品和其他资源 · 经济基础设施</text>
  </g>

  <g fill="#9CA3AF">
    <polygon points="640,232 632,220 648,220"/>
    <polygon points="640,648 632,660 648,660"/>
    <polygon points="428,440 416,432 416,448"/>
    <polygon points="852,440 864,432 864,448"/>
  </g>

  <g fill="none" stroke="#1F2937" stroke-width="1" vector-effect="non-scaling-stroke">
    <rect x="480" y="360" width="320" height="160"/>
    <line x1="544" y1="360" x2="544" y2="520"/>
    <line x1="608" y1="360" x2="608" y2="460"/>
    <line x1="672" y1="360" x2="672" y2="460"/>
    <line x1="736" y1="360" x2="736" y2="520"/>
    <line x1="480" y1="460" x2="800" y2="460"/>
    <line x1="544" y1="410" x2="608" y2="410"/>
    <line x1="672" y1="410" x2="736" y2="410"/>
    <line x1="640" y1="460" x2="640" y2="520"/>
  </g>
  <g font-family="Inter, system-ui, sans-serif" font-size="11" font-weight="600" fill="#374151" text-anchor="middle">
    <text x="512" y="388">KP</text>
    <text x="576" y="383">KA</text>
    <text x="576" y="437">KR</text>
    <text x="640" y="388">VP</text>
    <text x="704" y="383">CR</text>
    <text x="704" y="437">CH</text>
    <text x="768" y="388">CS</text>
    <text x="560" y="494">C$</text>
    <text x="720" y="494">R$</text>
  </g>
  <text x="640" y="544" font-family="Inter, 'PingFang SC', system-ui, sans-serif" font-size="13" font-style="italic" fill="#6B7280" text-anchor="middle">你的商业模式</text>
</svg>
